<?xml version="1.0" encoding="UTF-8"?>
<svg xmlns="http://www.w3.org/2000/svg" xmlns:xlink="http://www.w3.org/1999/xlink" viewBox="0 0 96 96" width="96px" height="96px">
<g id="surface32441920">
<path style=" stroke:none;fill-rule:nonzero;fill:rgb(100%,100%,100%);fill-opacity:1;" d="M 47.5 0.75 C 45.484375 1 43.984375 2.71875 44 4.75 L 44 12.75 C 43.984375 14.1875 44.734375 15.53125 45.984375 16.265625 C 47.234375 16.984375 48.765625 16.984375 50.015625 16.265625 C 51.265625 15.53125 52.015625 14.1875 52 12.75 L 52 4.75 C 52.015625 3.59375 51.515625 2.5 50.65625 1.734375 C 49.796875 0.96875 48.640625 0.609375 47.5 0.75 Z M 16 13.5 C 14.5 13.765625 13.296875 14.859375 12.875 16.3125 C 12.453125 17.78125 12.890625 19.34375 14 20.375 L 19.625 26 C 20.59375 27.1875 22.140625 27.734375 23.640625 27.390625 C 25.125 27.046875 26.296875 25.875 26.640625 24.390625 C 26.984375 22.890625 26.4375 21.34375 25.25 20.375 L 19.625 14.75 C 18.875 13.953125 17.84375 13.515625 16.75 13.5 C 16.625 13.5 16.5 13.5 16.375 13.5 C 16.25 13.5 16.125 13.5 16 13.5 Z M 78.75 13.5 C 77.84375 13.625 77 14.078125 76.375 14.75 L 70.75 20.375 C 69.5625 21.34375 69.015625 22.890625 69.359375 24.390625 C 69.703125 25.875 70.875 27.046875 72.359375 27.390625 C 73.859375 27.734375 75.40625 27.1875 76.375 26 L 82 20.375 C 83.1875 19.234375 83.546875 17.46875 82.90625 15.953125 C 82.28125 14.4375 80.765625 13.46875 79.125 13.5 C 79 13.5 78.875 13.5 78.75 13.5 Z M 48 20.75 C 32.625 20.75 20 33.375 20 48.75 C 20 64.125 32.625 76.75 48 76.75 C 63.375 76.75 76 64.125 76 48.75 C 76 33.375 63.375 20.75 48 20.75 Z M 48 28.75 C 59.015625 28.75 68 37.734375 68 48.75 C 68 59.765625 59.015625 68.75 48 68.75 C 36.984375 68.75 28 59.765625 28 48.75 C 28 37.734375 36.984375 28.75 48 28.75 Z M 3.25 44.75 C 1.046875 44.953125 -0.578125 46.921875 -0.375 49.125 C -0.171875 51.328125 1.796875 52.953125 4 52.75 L 12 52.75 C 13.4375 52.765625 14.78125 52.015625 15.515625 50.765625 C 16.234375 49.515625 16.234375 47.984375 15.515625 46.734375 C 14.78125 45.484375 13.4375 44.734375 12 44.75 L 4 44.75 C 3.875 44.75 3.75 44.75 3.625 44.75 C 3.5 44.75 3.375 44.75 3.25 44.75 Z M 83.25 44.75 C 81.046875 44.953125 79.421875 46.921875 79.625 49.125 C 79.828125 51.328125 81.796875 52.953125 84 52.75 L 92 52.75 C 93.4375 52.765625 94.78125 52.015625 95.515625 50.765625 C 96.234375 49.515625 96.234375 47.984375 95.515625 46.734375 C 94.78125 45.484375 93.4375 44.734375 92 44.75 L 84 44.75 C 83.875 44.75 83.75 44.75 83.625 44.75 C 83.5 44.75 83.375 44.75 83.25 44.75 Z M 21.875 70.375 C 21 70.53125 20.21875 70.96875 19.625 71.625 L 14 77.125 C 12.40625 78.671875 12.390625 81.21875 13.9375 82.8125 C 15.484375 84.40625 18.03125 84.421875 19.625 82.875 L 25.25 77.25 C 26.546875 76.046875 26.890625 74.140625 26.109375 72.5625 C 25.34375 70.96875 23.609375 70.09375 21.875 70.375 Z M 72.75 70.375 C 71.25 70.640625 70.046875 71.734375 69.625 73.1875 C 69.203125 74.65625 69.640625 76.21875 70.75 77.25 L 76.375 82.875 C 77.96875 84.421875 80.515625 84.40625 82.0625 82.8125 C 83.609375 81.21875 83.59375 78.671875 82 77.125 L 76.375 71.625 C 75.546875 70.734375 74.34375 70.28125 73.125 70.375 C 73 70.375 72.875 70.375 72.75 70.375 Z M 47.5 80.75 C 45.484375 81 43.984375 82.71875 44 84.75 L 44 92.75 C 43.984375 94.1875 44.734375 95.53125 45.984375 96.265625 C 47.234375 96.984375 48.765625 96.984375 50.015625 96.265625 C 51.265625 95.53125 52.015625 94.1875 52 92.75 L 52 84.75 C 52.015625 83.59375 51.515625 82.5 50.65625 81.734375 C 49.796875 80.96875 48.640625 80.609375 47.5 80.75 Z M 47.5 80.75 "/>
</g>
</svg>
